<svg id="Layer_1" enable-background="new 0 0 512 512" height="512" viewBox="0 0 512 512" width="512" xmlns="http://www.w3.org/2000/svg"><g><g><g id="XMLID_958_"><g id="XMLID_959_"><g id="XMLID_960_"><g id="XMLID_961_"><g id="XMLID_962_"><g id="XMLID_963_"><g id="XMLID_964_"><g id="XMLID_965_"><g id="XMLID_966_"><g id="XMLID_967_"><g id="XMLID_968_"><g id="XMLID_969_"><g id="XMLID_970_"><g id="XMLID_971_"><circle id="XMLID_972_" cx="256" cy="256" fill="#fc445f" r="256"/></g></g></g></g></g></g></g></g></g></g></g></g></g></g></g><g><path d="m511.95 259.944-101.172-101.173s-14.658-11.652-26.111-18.521l-106.859-110-113.343 243.758-124.68 29.45 33.18 33.259 33.589 61.837 110.502 110.502c12.698 1.938 25.704 2.944 38.944 2.944 140.066 0 253.84-112.492 255.95-252.056z" fill="#e00f5a"/><path d="m305.011 113.169h-98.022c-67.663 0-124.96 46.631-141.352 109.342-22.744.567-41.024 20.82-41.024 45.74 0 23.749 16.602 43.27 37.848 45.542 10.279 70.457 71.336 125.02 144.528 125.02h98.022c80.333 0 146.06-65.727 146.06-146.06v-33.524c0-80.334-65.727-146.06-146.06-146.06z" fill="#ffdaae"/><g><g><path d="m487.387 268.25c0-24.921-18.283-45.176-41.029-45.74-12.571-48.089-49.193-86.721-96.098-102.12-14.26-4.69-29.47-7.22-45.25-7.22h-49.01v325.64h49.01c73.188 0 134.248-54.557 144.528-125.018 21.247-2.271 37.849-21.792 37.849-45.542z" fill="#ffc48a"/><g><circle cx="179.86" cy="231.851" fill="#776d6b" r="28.173"/><circle cx="332.14" cy="231.851" fill="#605553" r="28.173"/></g><path d="m277.808 30.25s-99.896 23.499-114.087 74.408c-12.824 46.005 28.743 62.607 93.434 62.607 66.641 0 98.752-22.764 92.731-48.766-9.341-40.342-74.731-26.242-72.078-88.249z" fill="#776d6b"/><path d="m257.16 167.27h-1.16v-130.61c12.89-4.31 21.81-6.41 21.81-6.41-2.66 62.01 62.74 47.91 72.08 88.25.15.63.27 1.26.37 1.89 4.07 25.2-28.08 46.88-93.1 46.88z" fill="#605553"/><path d="m274.886 403.619h-37.773c-24.341 0-44.256-19.915-44.256-44.256v-17.21c0-24.341 19.915-44.256 44.256-44.256h37.773c24.341 0 44.256 19.915 44.256 44.256v17.21c0 24.34-19.915 44.256-44.256 44.256z" fill="#fd9827"/><path d="m319.14 342.15v17.21c0 24.34-19.91 44.26-44.25 44.26h-18.89v-105.72h18.89c24.34 0 44.25 19.91 44.25 44.25z" fill="#ea7b0c"/><ellipse cx="256" cy="350.757" fill="#ffe780" rx="20.966" ry="20.966" transform="matrix(.896 -.444 .444 .896 -129.037 149.976)"/><path d="m276.97 350.76c0 11.58-9.39 20.96-20.97 20.96v-41.93c11.58 0 20.97 9.39 20.97 20.97z" fill="#fed940"/></g><g><ellipse cx="128.303" cy="311.124" fill="#ffb8c7" rx="33.342" ry="24.808"/><ellipse cx="383.697" cy="311.124" fill="#ff8aa0" rx="33.342" ry="24.808"/></g></g></g></g></svg>