<svg id="Layer_1" enable-background="new 0 0 512 512" height="512" viewBox="0 0 512 512" width="512" xmlns="http://www.w3.org/2000/svg"><g><g><g><g id="XMLID_1367_"><g id="XMLID_1368_"><g id="XMLID_1369_"><g id="XMLID_1370_"><g id="XMLID_1371_"><g id="XMLID_1372_"><g id="XMLID_1373_"><g id="XMLID_1374_"><g id="XMLID_1375_"><g id="XMLID_1376_"><g id="XMLID_1377_"><g id="XMLID_1378_"><g id="XMLID_1379_"><g id="XMLID_1380_"><g><path d="m512 256c0 81.33-37.93 153.8-97.06 200.69 0 0-98.89 4.31-158.94 4.31s-158.94-4.31-158.94-4.31c-59.13-46.89-97.06-119.36-97.06-200.69 0-141.38 114.62-256 256-256s256 114.62 256 256z" fill="#fd9827"/></g></g></g></g></g></g></g></g></g></g></g></g></g></g></g></g></g><path d="m414.94 456.69c59.13-46.89 97.06-119.36 97.06-200.69 0-8.169-.4-16.244-1.148-24.218l-162.304-162.304-201.41 147.372 18.64 18.121c-10.849 3.67-45.268 67.962-45.268 67.962l54.64 54.582-78.09 99.175s98.89 4.31 158.94 4.31 158.94-4.31 158.94-4.31z" fill="#ea7b0c"/><g><path d="m166.797 222.61s-30.816 3.81-51.611 33.204c-10.441 14.76-8.112 35.022 5.324 47.12 12.322 11.096 30.642 12.244 44.281 2.814 16.597-11.475 34.876-31.383 34.876-63.415z" fill="#776d6b"/><path d="m342.866 222.61s30.811 3.81 51.605 33.204c10.441 14.76 8.112 35.022-5.323 47.12-12.322 11.096-30.642 12.244-44.281 2.814-16.597-11.475-34.876-31.383-34.876-63.415z" fill="#605553"/><path d="m254.831 32.333c-31.855 0-158.83 17.277-103.305 174h103.305 103.305c55.526-156.723-71.45-174-103.305-174z" fill="#776d6b"/><path d="m358.14 206.33h-102.14v-173.99c33.67.42 157 19.12 102.14 173.99z" fill="#605553"/><path d="m307.27 273.5v65.49l-52.44 82.01-50.62-67.19v-80.31z" fill="#ffc48a"/><path d="m307.27 273.5v65.49l-52.44 82.01v-147.5z" fill="#ffaf78"/><path d="m319.237 415.667h-126.588l11.556-76.677h103.063z" fill="#ffdaae"/><path d="m307.268 338.99 11.972 76.68h-64.409v-76.68z" fill="#ffc48a"/><g><path d="m284.706 234.125h-30v-71.77h65.627v30h-35.627z" fill="#ffaf78"/></g><path d="m414.94 456.69c-43.66 34.63-98.89 55.31-158.94 55.31s-115.28-20.68-158.94-55.31l7.04-63.01c2.33-20.81 17.78-37.75 38.28-41.97l61.83-12.72 12.42 21.84c17.33 30.44 61.24 30.34 78.43-.17l12.21-21.67 62.3 12.75c20.53 4.2 36.01 21.16 38.33 41.98z" fill="#6ae1db"/><path d="m414.94 456.69c-43.66 34.63-98.89 55.31-158.94 55.31v-128.4c15.25-.07 30.49-7.72 39.06-22.94l12.21-21.67 62.3 12.75c20.53 4.2 36.01 21.16 38.33 41.98z" fill="#2fc1b6"/><path d="m353.303 149.329c-4.158-61.206-55.244-83.829-98.472-83.829-43.227 0-94.314 22.623-98.472 83.829-11.186 2.095-19.124 16.303-17.879 27.797l1.926 26.147c1.307 12.065 12.247 20.868 24.313 19.561l2.078-.225c24.699 64.292 63.446 80.844 88.034 84.605 24.588-3.76 63.335-20.313 88.034-84.605l2.078.225c12.065 1.307 23.006-7.496 24.313-19.561l1.926-26.147c1.245-11.494-6.693-25.702-17.879-27.797z" fill="#ffdaae"/><g><path d="m353.303 149.329c11.186 2.095 19.124 16.303 17.879 27.797l-1.926 26.147c-1.307 12.065-12.248 20.868-24.313 19.561l-2.078-.225c-24.699 64.292-63.446 80.844-88.034 84.605v-241.714c43.228 0 94.314 22.623 98.472 83.829z" fill="#ffc48a"/></g><path d="m254.769 46c-106.769 0-98.41 103.329-98.41 103.329 76.792 7.575 97.171-59.534 98.41-65.079 1.238 5.545 21.618 72.654 98.41 65.079-.001 0 8.359-103.329-98.41-103.329z" fill="#776d6b"/><path d="m353.18 149.33c-68.03 6.71-91.79-45.19-97.18-60.98v-42.34c105.48.79 97.18 103.32 97.18 103.32z" fill="#605553"/></g></g></svg>