<svg id="Layer_1" enable-background="new 0 0 512 512" height="512" viewBox="0 0 512 512" width="512" xmlns="http://www.w3.org/2000/svg"><g><g id="XMLID_70_"><g><g id="XMLID_688_"><g id="XMLID_689_"><g id="XMLID_690_"><g id="XMLID_691_"><g id="XMLID_692_"><g id="XMLID_693_"><g id="XMLID_694_"><g id="XMLID_695_"><g id="XMLID_696_"><g id="XMLID_699_"><g id="XMLID_706_"><g id="XMLID_757_"><g id="XMLID_766_"><circle id="XMLID_767_" cx="256" cy="256" fill="#6ae1db" r="256"/></g></g></g></g></g></g></g></g></g></g></g></g></g></g></g><path d="m511.934 261.225-207.901-207.901s-69.7-.991-77.033 13.676-141.867 303.391-141.867 303.391l30.072 30.237 8.818 41.772 59.04 59.04c23.118 6.859 47.594 10.56 72.937 10.56 139.638 0 253.15-111.804 255.934-250.775z" fill="#2fc1b6"/><g><g><path d="m132.312 377.139h-28.108c-16.758 0-30.343-13.585-30.343-30.343v-91.777h58.451z" fill="#776d6b"/><path d="m379.688 377.139h28.108c16.758 0 30.343-13.585 30.343-30.343v-91.777h-58.451z" fill="#605553"/></g><g><path d="m320.841 128.018h-33.4v-31.185c0-17.336-14.104-31.44-31.44-31.44s-31.44 14.104-31.44 31.44v31.185h-33.4v-31.185c0-35.753 29.088-64.84 64.841-64.84s64.84 29.087 64.84 64.84v31.185z" fill="#776d6b"/></g><g><g><path d="m320.84 96.83v31.19h-33.4v-31.19c0-17.33-14.1-31.44-31.44-31.44v-33.4c35.75 0 64.84 29.09 64.84 64.84z" fill="#605553"/></g></g><path d="m365.06 450.714h-218.12c-19.746 0-35.754-16.008-35.754-35.754v-193.782c0-61.101 49.532-110.632 110.632-110.632h68.365c61.1 0 110.632 49.532 110.632 110.632v193.782c-.001 19.746-16.008 35.754-35.755 35.754z" fill="#fc445f"/><path d="m400.81 221.18v193.78c0 19.75-16 35.75-35.75 35.75h-109.06v-340.16h34.18c10.64 0 20.92 1.5 30.66 4.31 46.18 13.29 79.97 55.86 79.97 106.32z" fill="#e00f5a"/><g><path d="m289.988 391.117h-67.476c-24.139 0-43.707-19.568-43.707-43.707v-73.321h154.89v73.321c0 24.138-19.568 43.707-43.707 43.707z" fill="#ffe780"/><path d="m333.7 274.09v73.32c0 24.14-19.57 43.71-43.71 43.71h-33.99v-117.03z" fill="#fbbe2c"/><path d="m158.709 246.503h194.583v45.28h-194.583z" fill="#776d6b"/><g><g><path d="m256 246.5h97.29v45.28h-97.29z" fill="#605553"/></g></g></g></g></g></svg>